# vtk DataFile Version 3.0
Generated by GMDS VTK Writer

ASCII
DATASET UNSTRUCTURED_GRID
POINTS 50 float
0.128559 -0.106436 -0.106436
1.3 -0.237631 -0.237631
0.128559 0.106436 -0.106436
1.3 0.237631 -0.237631
0.128559 -0.106436 0.106436
1.3 -0.237631 0.237631
0.128559 0.106436 0.106436
1.3 0.237631 0.237631
0.128559 -2.76509e-17 0.150524
0.128559 9.21678e-18 -0.150524
1.3 2.05777e-17 -0.336062
1.3 -6.17337e-17 0.336062
0.128559 0.150524 0
1.3 0.336062 0
-8.68562e-12 -1.36627e-22 0
1.3 -2.0578e-17 0
1.3 -0.336062 -4.11557e-17
0.128559 -0.150524 -1.84338e-17
0.0737387 -0.0922989 0.0922989
1.3 -0.162265 0.162265
0.054834 -2.15064e-17 0.117075
1.3 -4.52714e-17 0.201637
1.3 -0.201637 -2.46934e-17
0.054834 -0.117075 -1.43376e-17
0.0737387 0.0922989 0.0922989
1.3 0.162265 0.162265
0.054834 0.117075 0
1.3 0.201637 0
0.0737387 0.0922989 -0.0922989
1.3 0.162265 -0.162265
0.054834 7.16882e-18 -0.117075
1.3 4.11543e-18 -0.201637
0.0737387 -0.0922989 -0.0922989
1.3 -0.162265 -0.162265
0.90952 0.1939 0.1939
0.90952 -5.03727e-17 0.274216
0.90952 0.274216 0
0.90952 0.1939 -0.1939
0.90952 1.67907e-17 -0.274216
0.90952 -0.1939 -0.1939
0.90952 -0.274216 -3.35817e-17
0.90952 -0.1939 0.1939
0.51904 0.21237 0
0.51904 0.150168 0.150168
0.51904 0.150168 -0.150168
0.51904 1.30038e-17 -0.21237
0.51904 -0.150168 -0.150168
0.51904 -0.21237 -2.60078e-17
0.51904 -0.150168 0.150168
0.51904 -3.90118e-17 0.21237
CELLS 48 240
4 18 23 17 4 
4 19 22 16 5 
4 18 20 8 4 
4 19 21 11 5 
4 24 26 12 6 
4 25 27 13 7 
4 24 20 8 6 
4 25 21 11 7 
4 28 26 12 2 
4 29 27 13 3 
4 28 30 9 2 
4 29 31 10 3 
4 32 23 17 0 
4 33 22 16 1 
4 32 30 9 0 
4 33 31 10 1 
4 18 23 14 20 
4 15 21 19 22 
4 20 14 26 24 
4 27 25 21 15 
4 14 30 28 26 
4 29 27 15 31 
4 23 32 30 14 
4 31 15 22 33 
4 7 34 35 11 
4 36 13 7 34 
4 37 3 13 36 
4 38 10 3 37 
4 39 1 10 38 
4 16 40 39 1 
4 5 41 40 16 
4 11 35 41 5 
4 12 42 43 6 
4 42 36 34 43 
4 2 44 42 12 
4 44 37 36 42 
4 9 45 44 2 
4 45 38 37 44 
4 0 46 45 9 
4 46 39 38 45 
4 40 47 46 39 
4 47 17 0 46 
4 41 48 47 40 
4 48 4 17 47 
4 35 49 48 41 
4 49 8 4 48 
4 35 49 43 34 
4 49 8 6 43 
CELL_TYPES 48
9 
9 
9 
9 
9 
9 
9 
9 
9 
9 
9 
9 
9 
9 
9 
9 
9 
9 
9 
9 
9 
9 
9 
9 
9 
9 
9 
9 
9 
9 
9 
9 
9 
9 
9 
9 
9 
9 
9 
9 
9 
9 
9 
9 
9 
9 
9 
9 
POINT_DATA 50
SCALARS GMDS_ID int 1
LOOKUP_TABLE default
0
1
2
3
4
5
6
7
8
9
10
11
12
13
14
15
16
17
18
19
20
21
22
23
24
25
26
27
28
29
30
31
32
33
34
35
36
37
38
39
40
41
42
43
44
45
46
47
48
49
SCALARS Hors_Groupe_0DND int 1
LOOKUP_TABLE default
0
0
0
0
0
0
0
0
0
0
0
0
0
0
1
0
0
0
0
0
0
0
0
0
0
0
0
0
0
0
0
0
0
0
0
0
0
0
0
0
0
0
0
0
0
0
0
0
0
0
SCALARS Hors_Groupe_1DND int 1
LOOKUP_TABLE default
1
1
1
1
1
1
1
1
1
1
1
1
1
1
0
0
1
1
0
0
0
0
0
0
0
0
0
0
0
0
0
0
0
0
0
0
0
0
0
0
0
0
0
0
0
0
0
0
0
0
CELL_DATA 48
SCALARS GMDS_ID int 1
LOOKUP_TABLE default
0
1
2
3
4
5
6
7
8
9
10
11
12
13
14
15
16
17
18
19
20
21
22
23
24
25
26
27
28
29
30
31
32
33
34
35
36
37
38
39
40
41
42
43
44
45
46
47
SCALARS Hors_Groupe_2D int 1
LOOKUP_TABLE default
1
1
1
1
1
1
1
1
1
1
1
1
1
1
1
1
1
1
1
1
1
1
1
1
1
1
1
1
1
1
1
1
1
1
1
1
1
1
1
1
1
1
1
1
1
1
1
1
